<svg width="18" height="26" viewBox="0 0 18 26" fill="none" xmlns="http://www.w3.org/2000/svg">
<path d="M16.2497 13.6589C15.9648 12.9988 15.5749 12.2433 15.1621 11.4433C14.357 9.88302 13.4444 8.11459 12.9641 6.41112C12.4442 4.56708 12.5367 3.15504 13.247 2.09438C13.4083 1.85363 13.4053 1.53858 13.2395 1.30092C13.0737 1.06326 12.7792 0.951601 12.4975 1.01976C12.3644 1.05196 9.22155 1.83708 7.70231 4.37939C7.19385 5.23018 6.92858 6.1692 6.90758 7.18584C6.45438 6.84355 5.94817 6.54903 5.46488 6.45472C5.24283 6.41145 5.01356 6.47755 4.84875 6.63252C4.68388 6.78744 4.60368 7.01216 4.63312 7.23646C4.88015 9.11731 4.03447 10.365 3.05533 11.8098C2.59576 12.488 2.12053 13.1892 1.72504 14.0011C0.680556 16.1453 0.850246 18.4494 2.22938 20.8494C3.72884 23.4587 6.48574 25 9.37202 25C10.0679 25 10.7717 24.9104 11.4669 24.7244C11.5203 24.7101 11.5741 24.6962 11.627 24.6801C13.6522 24.0615 15.2677 22.6402 16.1757 20.6781C17.1813 18.5051 17.209 15.8811 16.2497 13.6589ZM6.84875 22.5896C6.26435 21.9342 5.98825 21.0443 6.09128 20.1481C6.19567 19.24 6.99486 18.1916 7.76765 17.1776C8.56088 16.1369 9.42368 15.0051 9.68604 13.8093C10.4346 14.771 11.1153 16.4803 10.1815 19.2039C10.1032 19.4323 10.1475 19.6849 10.299 19.8729C10.4504 20.061 10.6877 20.1582 10.9276 20.1304C11.1778 20.1014 11.5417 19.9906 11.8871 19.7582C12.0254 20.706 11.8634 21.6692 11.4073 22.3909C11.0715 22.9223 10.4246 23.5523 9.23646 23.5922C9.00827 23.5876 8.78125 23.5714 8.55615 23.5439C7.89473 23.4254 7.30157 23.0975 6.84875 22.5896ZM14.8995 20.0874C14.4441 21.0716 13.7711 21.8875 12.9376 22.4857C13.5261 21.0943 13.478 19.3601 12.7719 17.8746C12.6409 17.599 12.3473 17.4393 12.0445 17.4794C12.0304 17.4812 12.0165 17.4835 12.0026 17.4862C12.1873 15.6401 11.6818 14.3051 11.136 13.4358C10.3201 12.1364 9.23416 11.5705 9.18836 11.5471C8.92412 11.4118 8.60335 11.4572 8.38693 11.6603C8.17045 11.8634 8.10483 12.1806 8.223 12.4529C8.72279 13.6048 7.71557 14.9262 6.64924 16.3252C5.76118 17.4903 4.84284 18.6951 4.69424 19.9875C4.61952 20.6373 4.68398 21.2861 4.87434 21.8918C4.31797 21.4032 3.83351 20.8184 3.44871 20.1487C2.30007 18.1498 2.14983 16.3404 2.98933 14.617C3.34089 13.8952 3.78753 13.2361 4.21949 12.5988C5.07056 11.343 5.94526 10.0523 6.06878 8.31325C6.52526 8.6628 6.9995 9.13395 7.30907 9.49963C7.52099 9.75064 7.87856 9.82147 8.17017 9.67011C8.46179 9.51875 8.60977 9.18565 8.52648 8.86783C8.14959 7.42898 8.27696 6.16404 8.90514 5.10812C9.52437 4.06724 10.5306 3.38061 11.3689 2.95746C11.1156 4.05656 11.1969 5.32562 11.6107 6.79288C12.1295 8.63317 13.0767 10.4688 13.9125 12.0883C14.3138 12.8661 14.6929 13.6007 14.9586 14.2163C15.7618 16.0769 15.7397 18.2718 14.8995 20.0874Z" fill="white" stroke="white" stroke-width="0.4"/>
</svg>
